<?xml version="1.0" encoding="utf-8"?>
<!-- Generator: Adobe Illustrator 17.1.0, SVG Export Plug-In . SVG Version: 6.00 Build 0)  -->
<!DOCTYPE svg PUBLIC "-//W3C//DTD SVG 1.1//EN" "http://www.w3.org/Graphics/SVG/1.1/DTD/svg11.dtd">
<svg version="1.1" id="Capa_1" xmlns="http://www.w3.org/2000/svg" xmlns:xlink="http://www.w3.org/1999/xlink" x="0px" y="0px"
	 viewBox="-0.5 -0.5 100 100" enable-background="new -0.5 -0.5 100 100" xml:space="preserve">
<g>
	<g>
		<path fill="#0086F7" d="M49.5-0.5c-27.6,0-50,22.4-50,50c0,27.6,22.4,50,50,50c27.6,0,50-22.4,50-50C99.5,21.9,77.1-0.5,49.5-0.5z
			 M78.2,47.9c-2.1,2.3-4.2,4.5-6.4,6.8c-1.7,1.8-3.3,3.7-5.1,5.4c-2.3,2.4-4.5,4.7-6.7,7.1c-1.9,2.1-3.8,4.1-5.7,6.2
			c-1.1,1.1-2.2,2.3-3.2,3.4c-1.1,1.2-2.7,0.7-3.3-0.3c-0.1-0.2-0.3-0.4-0.4-0.5c-1.7-1.7-3.4-3.5-5-5.2c-2-2.2-4.1-4.3-6.1-6.5
			c-1.9-2-3.8-4.1-5.7-6.1c-3-3.2-6.1-6.5-9.1-9.7c-1.8-1.9-3.6-4-5.5-5.9c-1.1-1.1-1.3-2.1-0.3-3.4c4.2-5.7,8.5-11.3,12.8-17
			c0.5-0.7,1.1-0.9,2-0.9c6.4,0,12.9,0,19.3,0c6,0,12,0.1,18-0.1c1.9,0,3,0.6,4.1,2.1c3.9,5.2,7.8,10.4,11.7,15.6
			c1.3,1.7,1,2.4-0.3,3.9C81.5,44.6,79.8,46.2,78.2,47.9z"/>
		<path fill="#0086F7" d="M37.8,42.9c4,8.8,7.9,17.4,11.8,26.1c3.9-8.7,7.9-17.4,11.8-26.1C53.5,42.9,45.7,42.9,37.8,42.9z"/>
		<path fill="#0086F7" d="M61,38.4c-0.3-1-0.9-1.8-1.4-2.7c-1.7-3.2-3.4-6.3-5-9.5c-0.3-0.5-0.6-0.6-1.1-0.6c-2.5,0-5.1,0-7.6,0
			c-0.8,0-1.2,0.3-1.5,0.9c-1,2-2.1,4-3.2,6.1c-1,1.9-2,3.8-3,5.8C45.9,38.4,53.4,38.4,61,38.4z"/>
		<path fill="#0086F7" d="M22.7,38.5c2.8,0,5.7-0.1,8.5,0c1.5,0.1,2.5-0.2,3-1.8c0.1-0.5,0.5-0.9,0.8-1.3c1-1.9,2-3.7,3-5.6
			c0.7-1.3,1.4-2.7,2.1-4.1c-2.8,0-5.5,0-8.2,0c-0.6,0-0.9,0.3-1.2,0.7c-1.7,2.3-3.4,4.6-5.1,6.9c-1.3,1.7-2.5,3.4-3.8,5.1
			C22,38.5,22.4,38.4,22.7,38.5z"/>
		<path fill="#0086F7" d="M68.3,26c-0.2-0.2-0.4-0.4-0.7-0.4c-2.8,0-5.5,0-8.3,0c0.4,1.1,1,2,1.5,3c1.7,3.1,3.3,6.2,5,9.4
			c0.2,0.3,0.3,0.5,0.7,0.5c3.6,0,7.3,0,11.2,0c-0.8-1-1.4-1.8-2.1-2.7C73.1,32.5,70.7,29.2,68.3,26z"/>
		<path fill="#0086F7" d="M33.4,43.5c-0.2-0.5-0.4-0.7-1-0.7c-3.2,0-6.4,0-9.7,0c-0.2,0-0.4-0.1-0.5,0.2c1,1.1,2,2.1,3,3.2
			c1.9,2.1,3.8,4.1,5.7,6.2c2,2.1,3.9,4.2,5.9,6.3c1.9,2.1,3.9,4.1,5.8,6.2c0.1,0,0.1-0.1,0.2-0.1c-1.9-4.7-4.2-9.3-6.2-14
			C35.5,48.3,34.4,45.9,33.4,43.5z"/>
		<path fill="#0086F7" d="M76.2,42.8c-3.1,0-6.2,0-9.3,0c-0.6,0-0.9,0.2-1.1,0.8c-1.1,2.5-2.2,5-3.3,7.5c-1.7,3.6-3.4,7.3-5,10.9
			c-0.4,0.9-1,1.7-1,2.7c2.2-2,4.1-4.2,6.1-6.4c3-3.2,6-6.4,9-9.6c1.6-1.7,3.3-3.4,4.9-5.1c0.2-0.2,0.4-0.3,0.4-0.5
			C76.8,42.6,76.4,42.8,76.2,42.8z"/>
	</g>
</g>
</svg>
